# xmcd
#
# Track frame offsets:
#	150
#	17820
#	33650
#	48842
#	69997
#	81385
#	107175
#	121870
#	144797
#	161572
#	185832
#	206857
#
# Disc length: 3058 seconds
#
# Revision: 1
# Processed by: cddbd v1.4PL0 Copyright (c) Steve Scherf et al.
# Submitted via: audiograbber 1.81.03
#
DISCID=a70bf00c
DTITLE=Bob Kirkpatrick - Going Back To Texas
DYEAR=1996
DGENRE=
TTITLE0=Going Back To Texas
TTITLE1=Big Feet
TTITLE2=I Don't Know Why
TTITLE3=Every-Ree Day
TTITLE4=Schefel
TTITLE5=I've Been Down So Long
TTITLE6=I Got Love
TTITLE7=Old Friend Of Mine
TTITLE8=House Calls
TTITLE9=Sad, Sad Blues
TTITLE10=Little Girl
TTITLE11=I Want To See Her
EXTD=
EXTT0=
EXTT1=
EXTT2=
EXTT3=
EXTT4=
EXTT5=
EXTT6=
EXTT7=
EXTT8=
EXTT9=
EXTT10=
EXTT11=
PLAYORDER=
